<svg version="1.1" id="Layer_1" xmlns="http://www.w3.org/2000/svg" x="0" y="0" viewBox="0 0 84.3 127.7" xml:space="preserve"><style>.st0{fill:#fff}</style><circle class="st0" cx="7.2" cy="7.2" r="7.2"/><circle class="st0" cx="30.5" cy="7.2" r="7.2"/><circle class="st0" cx="53.8" cy="7.2" r="7.2"/><circle class="st0" cx="77.1" cy="7.2" r="7.2"/><circle class="st0" cx="7.2" cy="29.9" r="7.2"/><circle class="st0" cx="30.5" cy="29.9" r="7.2"/><circle class="st0" cx="53.8" cy="29.9" r="7.2"/><circle class="st0" cx="77.1" cy="29.9" r="7.2"/><circle class="st0" cx="7.2" cy="52.5" r="7.2"/><circle class="st0" cx="30.5" cy="52.5" r="7.2"/><circle class="st0" cx="53.8" cy="52.5" r="7.2"/><circle class="st0" cx="77.1" cy="52.5" r="7.2"/><circle class="st0" cx="7.2" cy="75.2" r="7.2"/><circle class="st0" cx="30.5" cy="75.2" r="7.2"/><circle class="st0" cx="53.8" cy="75.2" r="7.2"/><circle class="st0" cx="77.1" cy="75.2" r="7.2"/><circle class="st0" cx="7.2" cy="97.8" r="7.2"/><circle class="st0" cx="30.5" cy="97.8" r="7.2"/><circle class="st0" cx="53.8" cy="97.8" r="7.2"/><circle class="st0" cx="77.1" cy="97.8" r="7.2"/><circle class="st0" cx="7.2" cy="120.5" r="7.2"/><circle class="st0" cx="30.5" cy="120.5" r="7.2"/><circle class="st0" cx="53.8" cy="120.5" r="7.2"/><circle class="st0" cx="77.1" cy="120.5" r="7.2"/></svg>