<?xml version="1.0" encoding="utf-8"?>
<!-- Generator: Adobe Illustrator 25.2.1, SVG Export Plug-In . SVG Version: 6.00 Build 0)  -->
<svg version="1.1" id="Layer_1" xmlns="http://www.w3.org/2000/svg" xmlns:xlink="http://www.w3.org/1999/xlink" x="0px" y="0px"
	 viewBox="0 0 24 24" style="enable-background:new 0 0 24 24;" xml:space="preserve">
<style type="text/css">
	.st0{fill:none;stroke:#FFFFFF;stroke-width:1.0093;stroke-miterlimit:10;}
	.st1{fill:none;stroke:#FFFFFF;stroke-linecap:round;stroke-miterlimit:10;}
</style>
<path class="st0" d="M18.6,22.6H5.4c-1.2,0-2.1-0.9-2.1-2.1v-17c0-1.2,0.9-2.1,2.1-2.1h13.2c1.2,0,2.1,0.9,2.1,2.1v17
	C20.7,21.7,19.7,22.6,18.6,22.6z"/>
<path class="st1" d="M18.2,7.9H5.9C5.4,7.9,5,7.5,5,7V4.4c0-0.5,0.4-0.9,0.9-0.9h12.3c0.5,0,0.9,0.4,0.9,0.9V7
	C19.1,7.5,18.7,7.9,18.2,7.9z"/>
<line class="st1" x1="6" y1="9.9" x2="12.1" y2="9.9"/>
<line class="st1" x1="6" y1="11.9" x2="12.1" y2="11.9"/>
<line class="st1" x1="6" y1="13.9" x2="12.1" y2="13.9"/>
<line class="st1" x1="6" y1="15.9" x2="12.1" y2="15.9"/>
<line class="st1" x1="6" y1="17.9" x2="18.1" y2="17.9"/>
<line class="st1" x1="6" y1="19.9" x2="18.1" y2="19.9"/>
<path class="st1" d="M18.2,15.9h-3.1c-0.5,0-0.9-0.4-0.9-0.9v-4.3c0-0.5,0.4-0.9,0.9-0.9h3.1c0.5,0,0.9,0.4,0.9,0.9V15
	C19.1,15.5,18.7,15.9,18.2,15.9z"/>
</svg>
